<?xml version="1.0" encoding="utf-8"?>
<!DOCTYPE svg PUBLIC "-//W3C//DTD SVG 1.1//EN" "http://www.w3.org/Graphics/SVG/1.1/DTD/svg11.dtd">
<svg version="1.1" xmlns="http://www.w3.org/2000/svg" width="2891px" height="532px" viewBox="0 0 2891 532" preserveAspectRatio="xMidYMid meet">
 <g fill="#352b2a">
  <path d="M1400.9 528.3 c-0.6 -1.6 -1.4 -6.5 -1.9 -11 -0.9 -8.9 -1.1 -9.2 -6.5 -17.3 -4.5 -6.7 -10.7 -19.6 -13.1 -27.5 -1.7 -5.3 -1.9 -9.5 -1.9 -36 0 -16.5 0.2 -42.1 0.3 -57 0.2 -16.5 0 -29.3 -0.7 -33 -0.6 -3.3 -1.1 -8.7 -1.1 -12.1 0 -3.4 -0.6 -6.8 -1.3 -7.9 -3.5 -4.7 -13.4 3.5 -24.2 20 -3.9 6.1 -9 12.7 -11.3 14.7 -6.5 5.9 -14.4 6.3 -22 1.3 -2.4 -1.6 -6.3 -3 -9.7 -3.4 -6.1 -0.9 -7.4 -2 -7.6 -6.6 -0.6 -16.5 5.4 -31.6 17.8 -44.9 10.3 -11 25.1 -29 27.9 -34.1 3 -5.3 5.4 -14.7 5.4 -21 -0.1 -6.7 -2.5 -11.7 -9.8 -19.7 -5.3 -5.9 -6.1 -7.3 -6.7 -12 -1.1 -8.7 0.2 -11.5 8.2 -18 9 -7.3 10.8 -11.4 11.9 -25.8 0.4 -5.7 1.3 -11.9 2 -13.7 3.5 -8.3 0.7 -22.1 -6.8 -34.4 -2.5 -4.1 -6.4 -10.4 -8.7 -14.1 -4.8 -8 -5.4 -11.8 -1.6 -11.8 1.4 0 4.2 0.9 6.2 2 3 1.6 5.7 2 13 2 8.9 0 9.3 0.1 12.8 3.2 4.1 3.5 6.6 7.9 8.8 15.6 2.1 6.8 4.6 10.3 10.4 14.1 5.9 4 12.5 4.3 14.7 0.9 0.8 -1.3 2.8 -9.3 4.4 -17.9 4.6 -24.1 13.1 -46.6 20.1 -53.3 2.8 -2.7 3 -2.7 5.9 -1.2 3.5 1.8 8.6 8 10.6 12.8 0.8 1.8 1.7 6.2 2.1 9.8 1 9.5 4.1 20.6 10.3 36.5 5.4 13.9 5.5 14.1 6.2 28 0.8 16.4 1.2 17.6 11.5 32.5 4 5.8 9.6 14.9 12.4 20.2 5.8 10.9 8.4 13.4 18.2 18.3 5.8 3 8.8 5.7 12.6 11.4 0.1 0.2 2.3 0.7 4.9 1.2 6.2 1.2 8.4 3.2 8.4 7.9 0 5.1 -4.4 10.8 -12.2 16.1 -3.5 2.4 -10.1 7.9 -14.8 12.4 -8.1 7.7 -24.9 18.8 -40.6 26.8 -2.7 1.4 -5.8 3.4 -6.8 4.6 -2.8 3.1 -4.5 10.8 -6.1 28.6 -0.8 8.8 -2.2 23.9 -3 33.5 -1.7 18 -3.7 29.3 -5.8 32.1 -0.7 0.8 -3 2.5 -5.3 3.8 -13.3 7.4 -26.4 48.9 -29.9 94.9 -1.5 19.4 -1.8 21.9 -3.7 28 -1.2 3.9 -2.5 4.1 -3.9 0.5z m-33.6 -213.9 c13.1 -12.1 15.9 -19.6 12.3 -32.9 -1.8 -6.8 -3.3 -9.5 -5.4 -9.5 -3 0 -8.2 6.4 -10.7 13.1 -1.2 3.5 -2.9 6.7 -3.6 7.1 -0.8 0.4 -2.7 1.3 -4.4 2 -4.3 1.9 -5.5 5.1 -5.5 15.1 0 10.7 0.8 12.7 5.6 12.7 2.9 0 4.7 -1.2 11.7 -7.6z m113.1 -58.7 c2.8 -1.3 9 -5.2 13.8 -8.6 13.3 -9.4 13.8 -11.6 4.1 -16.2 -8.7 -4.2 -17.6 -12.8 -18.9 -18.4 -1.8 -7.4 -5.5 -4.2 -10.4 9 -5.4 14.5 -6.3 31.2 -1.8 35.7 2.4 2.4 5.5 2 13.2 -1.5z m-94.6 -27.3 c3.4 -2.2 7.8 -9.7 9.2 -15.6 1.6 -6.4 0.8 -22 -1.3 -27 -3.1 -7.4 -8.2 -4.6 -21 11.4 -5.9 7.3 -6.9 11.1 -5.7 20.1 1.1 7.6 3.7 12.3 7.3 13 3.3 0.7 8.9 -0.2 11.5 -1.9z"/>
  <path d="M2713.5 508.1 c-1.5 -0.6 -2.1 -2 -2.5 -5.2 -0.4 -3.8 -0.8 -4.4 -3.1 -4.7 -1.4 -0.2 -3.1 0.4 -3.9 1.2 -0.7 0.9 -1.9 1.6 -2.6 1.6 -0.8 0 -6.4 -4.6 -12.3 -10.3 -6.2 -5.9 -13.5 -11.7 -16.8 -13.4 -8 -4.3 -11.3 -8 -11.6 -12.9 l-0.2 -3.9 19 -0.6 c24.6 -0.7 27 -1.6 41.5 -15.5 9.9 -9.5 11.7 -13.2 13 -26 0.5 -5.5 1.6 -11.6 2.5 -13.6 1.7 -4.2 2 -12.4 0.5 -13.3 -0.9 -0.6 -2.5 0.2 -10.5 5 -3.2 2 -5.4 2.5 -11.2 2.5 -3.9 0 -8.4 0.5 -10 1.1 -1.5 0.6 -6.6 1.7 -11.2 2.4 -10.7 1.8 -16.8 4.8 -26.1 13.1 -4.1 3.7 -9.7 7.8 -12.5 9 -2.8 1.3 -6.4 3.7 -8 5.4 -3.4 3.6 -6.5 3.8 -10.5 0.8 l-3 -2.2 -3.3 3.1 c-1.7 1.7 -4.1 3.4 -5.3 3.7 -4.6 1.4 -26.4 -12.8 -29 -18.9 -0.7 -1.9 -1.7 -6.3 -2 -9.8 -1.6 -16.2 8.1 -28.6 16.9 -21.7 4.4 3.5 12.7 2.7 32.4 -3 9.5 -2.7 19.8 -5.4 23 -5.9 3.2 -0.5 11.1 -2.5 17.6 -4.5 9.2 -2.8 13.5 -3.6 19.5 -3.6 5.8 0 8.5 -0.5 10.8 -1.9 l3.1 -1.9 0.5 -11.5 c0.5 -10.5 0.8 -12.1 4.1 -18.9 1.9 -4.1 4.3 -9.7 5.2 -12.4 2 -5.9 3.7 -23.8 2.5 -27 -1.8 -4.7 -8.8 -3.9 -12.8 1.5 -1.1 1.5 -4.3 7.3 -7.1 12.9 -5.6 11.2 -8.2 14.2 -12.1 14.2 -5.6 0 -18 -10.3 -22.1 -18.2 -4.3 -8.4 -3.3 -24.1 2.2 -34.9 2.4 -4.8 12 -15.2 17.5 -19 3.8 -2.6 16.8 -7.8 32.9 -13 8 -2.7 19.8 -3.5 26.4 -1.9 6.2 1.5 11.3 6.7 16 16.5 4.5 9.5 5.5 14.4 4.7 24 -1.1 15.4 -4.5 23.2 -19 45 -14.4 21.6 -15.2 28.7 -3.6 31.4 7.2 1.7 13.2 1.3 21.1 -1.3 49.7 -16.4 58.7 -17.5 74.6 -9.6 8 4 12.1 8.5 13.8 15.1 2.1 7.6 1.9 9.6 -1.4 16.5 -5.5 11.7 -13.2 17.5 -23.1 17.6 -3.9 0 -5.7 -0.5 -7.4 -2.1 -2 -1.9 -3.4 -2.1 -12.5 -2.1 -8.2 0 -11.2 0.4 -15.2 2.1 -4.8 2.1 -5 2.1 -7 0.3 -1.8 -1.6 -3.8 -1.8 -15.1 -1.9 -12.4 0 -13 0.1 -14.9 2.4 -2.5 3.1 -2.4 6.1 0.6 12.7 2.3 4.9 2.5 6.7 2.5 18.7 0 29.5 -5.8 50.8 -19.8 72.3 -3.5 5.3 -4.7 6.4 -8.9 7.8 -2.8 0.9 -6.3 3 -7.8 4.6 -2.7 2.8 -3.4 3 -9.9 2.9 -3.9 0 -8 -0.4 -9.1 -0.8z"/>
  <path d="M664.4 478.2 c-3.2 -2.1 -13.3 -9.3 -22.3 -16.1 -19 -14.2 -29.4 -21.2 -44.4 -30 -14.8 -8.7 -15.4 -10 -3.6 -7.7 9.7 1.9 20 5.7 32.9 12.1 13.8 6.9 26.2 11.7 38.5 15 16.9 4.6 23 2.9 42.7 -11.8 14 -10.4 22.8 -18.5 22.2 -20.2 -1.7 -4.4 -16.6 -7.5 -35.9 -7.5 -10.6 0 -11.5 0.2 -14.3 2.5 -4 3.4 -6.4 3.2 -16 -1.4 -9.4 -4.6 -16.7 -10.9 -19.3 -16.6 -2.6 -5.6 -2.4 -8.3 0.6 -9.7 6 -2.7 0.2 -7.8 -8.9 -7.8 -11.6 0 -48 7 -80.1 15.5 -26.9 7 -38.5 6.2 -61.2 -4.6 -6.2 -3 -9.6 -5.4 -14.5 -10.5 -4.1 -4.2 -8.5 -7.6 -12.5 -9.6 -3.4 -1.7 -6.4 -3.7 -6.8 -4.6 -1.3 -3.6 7.1 -6.4 25.7 -8.7 7.3 -0.9 23.7 -3.1 36.3 -5 44.8 -6.8 100.1 -13.5 135 -16.5 12 -1 13.1 -1.4 15.1 -5.2 2.6 -5 24.2 -71.2 23.7 -72.5 -1.2 -3.1 -5.4 -0.1 -10.5 7.6 -3.7 5.5 -7.3 7.6 -12.6 7.4 -5.3 -0.2 -8.2 1.1 -17.6 8 -12.9 9.5 -24.5 9.4 -29.4 -0.3 -1.4 -2.9 -1.7 -6.2 -1.6 -20 0 -14.3 0.4 -18.1 2.8 -28.4 3.9 -16.8 7.6 -26.7 16.8 -45.1 12.8 -25.6 20.6 -35.5 27.7 -35.5 6.2 0 13.9 8.2 16.7 17.6 2.1 7.4 1.9 15.3 -1.1 37.4 -2.9 21.5 -2.7 25 1.8 25 2.5 0 6.6 -2.7 18 -11.8 4.7 -3.7 7.4 -6.7 8.6 -9.6 3.3 -7.7 7 -24.1 9.1 -40.6 4.8 -38 14.1 -80.7 24.2 -112 4 -12.4 5.9 -15.9 11.2 -21.3 3.2 -3.2 4.9 -6.1 6 -10.1 2 -6.8 6.2 -11.9 9.8 -11.8 5.3 0 12.4 7.2 13.5 13.6 0.4 2.7 -0.2 5.1 -2.5 9.9 -4.2 8.6 -7.2 26.4 -9.2 54.1 -1.3 17.5 -4.2 35.6 -8 50 -4.9 18.7 -4.9 28.6 -0.1 28.6 1.1 0 5.2 -1.8 9.3 -3.9 23.8 -12.8 51.4 -20.9 61.9 -18.1 7.9 2.2 14.9 11.4 14.9 19.8 0 11.8 -33.3 87.1 -42.9 97 -2.2 2.3 -5.3 4.7 -6.8 5.5 -3.9 2 -14.4 2.5 -33.7 1.7 -15.9 -0.7 -16.7 -0.9 -22.5 -3.9 -6.8 -3.5 -12 -4 -14.5 -1.3 -0.9 1 -3 5.9 -4.6 10.8 -1.7 4.8 -5.5 14.9 -8.5 22.4 -3 7.4 -5.9 15.9 -6.6 18.9 -1.5 7.4 -0.2 8.7 8.9 8.5 8.4 -0.2 49.4 -6.1 52.7 -7.6 3.9 -1.8 5 -6 3.7 -14 -2 -11.5 0.2 -11.8 9.3 -1.1 3.6 4.2 6.8 8.7 7.1 10 0.4 1.3 0.9 2.3 1.1 2.3 0.9 0 46.1 -5.8 66.3 -8.5 31.1 -4.2 53.9 -6.3 67 -6.1 11 0.1 13.1 0.4 17.3 2.5 6.3 3.1 8.7 7 8.7 14.1 0 4.8 -0.6 6.6 -5 14 -2.7 4.6 -6 9.5 -7.3 10.7 -3.7 3.8 -11.6 5.2 -35.2 6.3 -12.1 0.6 -26.3 1.5 -31.5 2.1 -5.2 0.5 -11.5 1.2 -14 1.4 -4.8 0.5 -38.5 3 -56.1 4.1 l-10.7 0.6 -1.1 5.9 c-0.7 3.2 -3 11.3 -5.1 17.9 -5.3 16.3 -5.6 18.2 -3.3 20.3 2.4 2.1 22.2 9.7 32.8 12.5 9.5 2.5 24.7 5.4 44 8.2 20 3 27.1 4.7 35 8.5 10.3 4.9 17.1 12.5 19.9 22.1 0.9 2.9 -3.1 7.6 -8.7 10.2 -2.4 1.1 -8.5 2.8 -13.7 3.6 -8.5 1.5 -9.8 1.5 -14.9 0 -3.1 -0.8 -7.4 -2.6 -9.7 -3.9 -7.3 -4.3 -26.1 -13.4 -33.6 -16.4 -20.1 -7.9 -59.3 -20.1 -70.3 -21.8 -7.9 -1.2 -9 -0.8 -17.8 6.5 -18 15.1 -38.4 28.7 -62.4 41.6 -8.8 4.7 -17 8.6 -18 8.6 -1.1 0 -4.6 -1.7 -7.9 -3.8z m88 -90.5 c4.1 -4.4 12.4 -18.7 13.2 -22.6 1 -4.7 -2.1 -5.4 -19.6 -4.7 -14.4 0.5 -25.5 2.3 -30.8 4.8 -3.5 1.7 -4.1 6.3 -1.3 10 3.5 4.4 27.2 15.5 33.5 15.7 1 0.1 3.3 -1.4 5 -3.2z m16.6 -156.3 c28.2 -16 38.5 -23.9 48.2 -37.2 8.2 -11.1 7.5 -15.8 -2.3 -14.9 -7.6 0.7 -20.6 6.1 -35.6 14.9 -16.6 9.7 -22.2 14.8 -27.2 24.9 -4.6 9.2 -5.8 14 -4.2 17.5 1.9 4.2 6.1 3.2 21.1 -5.2z"/>
  <path d="M1994.2 468.1 c-1.2 -0.3 -3.9 -1.9 -6 -3.6 -2 -1.6 -15.8 -11.8 -30.7 -22.5 -14.8 -10.8 -31.7 -23.3 -37.5 -27.8 -5.8 -4.6 -13.2 -10.4 -16.5 -13 -3.3 -2.6 -6.6 -5 -7.5 -5.3 -2.3 -1 -4.7 0.7 -11.4 7.9 -3.3 3.6 -7.5 7.1 -9.3 7.9 -1.9 0.8 -7 1.3 -12.5 1.3 -7.7 0 -10.1 0.4 -14.2 2.4 -4.7 2.3 -5.3 2.3 -30.3 2 -15.5 -0.2 -26 -0.7 -26.7 -1.3 -0.7 -0.6 -1.8 -2.8 -2.4 -4.9 -0.6 -2.1 -3.6 -6.6 -6.6 -10 -12.9 -15 -30.3 -43 -34.5 -56 -2.4 -7 -3.7 -19.2 -2.7 -24.5 0.7 -3.9 4.9 -8.7 7.7 -8.7 1.1 0 2 0.1 2 0.3 0.1 0.1 0.5 7.2 0.8 15.7 0.6 14.5 0.8 15.9 3.6 21.5 3.7 7.4 12.3 16.1 19.5 19.8 8.2 4.1 24.7 9.8 30.5 10.6 4.9 0.7 11.7 0.7 32.1 0.3 8.6 -0.2 9.4 -0.4 15.5 -4.1 6.9 -4.2 9.3 -7.7 7 -10.5 -2.7 -3.2 -24.1 -16.7 -31.7 -20 -8.1 -3.4 -14.2 -6.9 -21.5 -12.1 -3.8 -2.7 -4.9 -3 -13.1 -3.1 l-9 -0.2 -3 -3.6 c-2.9 -3.5 -3.1 -3.6 -10.3 -3.6 -6.8 0 -7.5 -0.2 -9.7 -2.9 -3.8 -4.4 -5.3 -8.8 -3.8 -10.6 1.7 -2.1 3.5 -1.9 8.3 0.9 5.3 3 14 4.3 34.2 5.1 13.3 0.5 17.3 1 24 3.1 16.7 5.4 29.6 9.9 46.8 16.6 26.1 10 29.6 9.5 29.8 -4.7 0 -3.8 0.9 -10.1 2 -14 5.7 -20.6 8.4 -41.8 5.9 -46.6 -1.8 -3.3 -4 -4.8 -7.2 -4.9 -2.7 0 -6.4 2.6 -23.7 16.3 -13.9 11 -23.4 14.2 -30.8 10.4 -2 -1.1 -5.6 -1.7 -9.6 -1.7 -4.9 0 -6.8 -0.4 -8 -1.8 -3.1 -3.4 -4.7 -9 -4.7 -16.6 0 -5.2 -0.6 -9.1 -2 -12.6 -2.6 -6.6 -2.5 -9.4 0.4 -17.2 3.2 -8.5 5.8 -21.4 5.1 -25 -0.7 -3 -3.1 -4.8 -5.3 -4.1 -3 1.1 -6.1 -0.8 -8 -4.9 -2.5 -5.2 -3.9 -16.3 -2.3 -18.2 0.8 -0.9 3.8 -1.1 12.1 -0.8 22.1 0.9 24.3 -2.1 27 -36.3 0.6 -7.7 1.8 -21 2.6 -29.5 2.2 -21.8 0.5 -40.4 -5.1 -55.9 -6.4 -17.8 -0.8 -18.8 14.9 -2.8 12.8 13.1 18.2 20.5 20.2 27.6 5.5 19.9 6.5 21.5 18.6 27.4 5.1 2.5 10.8 5.9 12.6 7.6 5 4.7 9.3 5.4 28.8 4.6 18.6 -0.8 21.4 -0.3 21.4 3.9 0 3.4 -8 13.8 -14.7 19 -5.5 4.3 -16.4 10.5 -44.7 25.1 -22.8 11.7 -23.7 12.7 -35.6 36 l-8 15.7 0 7.9 c0 6.6 0.3 8.2 2 9.9 3.9 3.9 13.9 1.5 23.6 -5.7 13.7 -10.1 22.1 -12.8 36.9 -12 13.5 0.7 18.6 2.7 25.7 9.7 6.9 6.9 8.2 10.9 8.3 24.5 0 11.8 -1.1 15.7 -9.5 33 -3.2 6.6 -7.9 16.3 -10.3 21.5 -2.4 5.2 -6.8 12.8 -9.7 16.9 -5 6.7 -5.5 7.9 -5.8 13.6 l-0.4 6.3 6.4 2.1 c8.7 2.9 23.5 11.5 33.5 19.5 10.6 8.5 24.4 24.1 28.3 31.9 4 8.2 6.3 21.2 6.3 36.7 0.1 17.2 -2 22.7 -8.1 21.1z"/>
  <path d="M1736.5 465.8 c-1 -0.6 -4.8 -1.7 -8.4 -2.5 -3.6 -0.7 -7.9 -2.4 -9.7 -3.8 -4.7 -3.6 -12 -13.8 -17.1 -23.9 -3.5 -6.9 -5.9 -10.3 -10.6 -14.5 -18.3 -16.8 -22.6 -21.4 -25.6 -27.7 -1.7 -3.6 -3.8 -6.7 -4.7 -7.1 -1 -0.4 -3.2 1 -6.2 4 -7 6.8 -11.8 8.7 -23.1 8.7 -8.5 0 -9.6 0.2 -12.3 2.5 -3.6 3.1 -5.2 3.1 -7.3 0.3 -1.2 -1.9 -1.4 -4.3 -0.9 -14.3 0.7 -14.7 1.4 -16 11 -19.7 9.1 -3.5 9.7 -3.9 12.3 -8.9 3.7 -6.9 7 -10.6 15 -16.6 11.1 -8.3 28.8 -22.8 34.9 -28.7 7.7 -7.3 8.9 -10.2 10.2 -24.7 0.6 -6.8 1.8 -18.8 2.6 -26.7 1.7 -17.3 1.8 -22.4 0.2 -24 -1.9 -1.9 -3.9 -1.4 -8.7 1.8 -10.8 7.3 -26.1 1.4 -32.2 -12.4 -5 -11.5 -3.1 -14.8 8.4 -15.4 10.2 -0.4 11 -0.7 17.4 -5.9 3.2 -2.6 9.6 -7.2 14.3 -10.4 4.7 -3.1 10.3 -7.6 12.5 -10 9.8 -10.6 16.9 -24.4 18.5 -35.9 2.1 -14.7 3.1 -19.3 6 -26.8 1.6 -4.2 5.1 -15.9 7.6 -25.9 3.1 -11.6 5.3 -18.4 6.2 -18.8 3.7 -1.4 7.6 7.8 8.9 20.7 0.4 5.3 0 8.5 -3.2 20.3 -3.4 12.8 -3.8 15.2 -3.9 28 l-0.1 14 6.5 0.3 c7.4 0.4 9 1.3 9 5.4 0 4.9 -3.4 9.9 -12.8 18.9 -13.3 12.7 -13.8 14.2 -16.8 45.9 -1.8 19.5 -1.5 28.2 1.2 31.1 3.6 4 6.3 2.2 11.2 -7.6 3.9 -7.7 5.8 -9.4 16.4 -14.5 8.2 -3.8 9.4 -4.8 18.4 -15 12.7 -14.5 22.1 -20.9 23.8 -16.4 1.1 2.9 0.6 4.1 -3.5 9.3 -3.6 4.5 -14.9 28.2 -14.9 31.1 0 0.6 -9.9 10.7 -22 22.6 -15 14.8 -22.6 23 -24.1 26.1 -2.1 4.3 -2.2 5.5 -2 36.6 0.2 35.8 0.9 46.3 4.9 68.2 2.4 13.4 2.7 17.3 2.7 36.5 -0.1 24 -0.7 27 -5.2 27 -1.6 0 -3.7 -0.6 -4.8 -1.2z m-47.2 -67 c0.9 -0.7 3.2 -5.5 5.2 -10.7 3.9 -10.1 5.2 -18.6 5.7 -36.4 0.2 -8.7 -0.1 -11 -1.4 -12.3 -1 -1 -2.3 -1.4 -3.7 -0.9 -5.5 1.7 -23.2 29.2 -25 39 -1.3 7 0.1 10.4 6.8 16.9 6.1 5.7 9.1 6.8 12.4 4.4z"/>
  <path d="M1233.3 460.8 c-0.6 -0.7 -1.3 -2.6 -1.7 -4.3 -0.4 -1.6 -3.1 -8.2 -6.1 -14.5 -7.8 -16.8 -8.8 -21.4 -9.1 -41.9 -0.3 -16 -0.5 -17.6 -2.4 -19.5 -1.7 -1.8 -2.2 -1.9 -3.5 -0.6 -0.8 0.8 -2.1 4.6 -2.9 8.3 -2.1 10.4 -5.1 12.5 -12.9 9.2 -5.4 -2.2 -6.4 -1.9 -11 3.1 -4.3 4.7 -8.9 7.6 -14.2 8.8 -1.9 0.5 -5.4 3.3 -9.5 7.7 -6.1 6.4 -6.8 6.9 -10.8 6.9 -2.3 0 -9.5 -1.1 -15.9 -2.5 -13.3 -2.8 -14.3 -3.5 -16.8 -11.7 -1.7 -5.8 -1.2 -11.2 1.6 -17.3 2.9 -6.2 17.6 -23.1 29.6 -34.1 5.9 -5.4 11 -10.1 11.3 -10.4 2.6 -2.6 21.4 -19.2 28.6 -25.2 16.7 -14.1 23.9 -22.9 30.4 -37.1 5 -11 5.3 -13.3 5.1 -34.9 -0.1 -6.7 -0.4 -7.7 -2.1 -8.3 -2.2 -0.7 -6.7 1.4 -9.5 4.5 -1.1 1.3 -7.1 6.5 -13.2 11.7 -6.2 5.2 -18.8 16.5 -28.1 25.2 -9.2 8.6 -21.9 19.6 -28.2 24.3 -13.2 9.9 -18.9 15.5 -22.2 21.7 -1.3 2.5 -2.8 4.6 -3.4 4.8 -2.9 0.9 -6.2 -5.9 -11.1 -23 -2.1 -7.4 -2.5 -10.3 -2.1 -18 0.5 -10.1 1.9 -13.9 7.2 -19.5 4.9 -5.2 7.8 -6.4 14.4 -5.7 4.7 0.6 6.9 0.2 12.7 -2 16.1 -6 36.9 -18.5 61.1 -36.7 7.7 -5.7 17.7 -13.1 22.4 -16.4 9.8 -6.9 9.4 -5.9 10.9 -25.9 0.6 -7.7 1.7 -16.1 2.5 -18.6 4.5 -14.4 14.5 -25.9 22.6 -25.9 1.2 0 3.9 1.7 6 3.8 4.9 4.9 7 11.8 7.1 23.6 0.1 5 0.4 10.2 0.8 11.6 0.7 2.5 0.8 2.5 9.9 2.1 11 -0.4 13.7 0.8 14.8 6.6 0.9 5.3 2.8 8.7 5.8 10.2 3.5 1.9 4 4.1 1.8 7.1 -3 4 -7.9 6.8 -14 8 -14.7 2.9 -21.7 5.1 -23.8 7.4 -2.7 3 -4 9.9 -5.9 31.1 -1.6 16.4 -1.3 33.6 0.5 36.5 1.1 1.8 3.2 0.4 15 -9.9 9.8 -8.6 19.9 -15.1 23.4 -15.1 6.8 0 -0.6 14.2 -16.1 31.1 -14.9 16.2 -24.5 30.6 -26.4 39.7 -1 5 -1.4 47 -0.7 86.2 0.2 9.8 -2.3 16.9 -7.3 21.4 -1.6 1.4 -4.4 5.7 -6.3 9.5 -1.9 3.8 -4.2 7.1 -5.1 7.5 -2.2 0.8 -2.1 0.8 -3.2 -0.6z m-35 -98.3 l4.9 -7 -0.6 -8.4 c-0.8 -12.2 -3.3 -15.2 -9.7 -11.4 -5.2 3.1 -8.2 8.5 -8.3 15.1 -0.2 11.8 2.9 19.8 7.2 19 0.9 -0.2 3.9 -3.5 6.5 -7.3z"/>
  <path d="M60.5 443.5 c-21 -6.9 -23.7 -7.5 -31.7 -7.5 -10.8 0 -15.4 -1.4 -19.9 -5.9 -4.7 -4.6 -5.7 -10.2 -4 -21.3 l1.2 -7.9 -3.1 -3.6 c-3.6 -4.1 -3.6 -4.8 0 -19.9 9.6 -39.7 19.7 -53.8 95.6 -133.4 27.2 -28.5 40.3 -43 42.4 -47 2.2 -4.1 0.5 -6.3 -9.1 -11.5 -8.9 -4.8 -10.8 -6.6 -18.1 -16.4 -1.8 -2.5 -6 -6.3 -9.3 -8.6 -3.3 -2.2 -6.1 -4.8 -6.3 -5.7 -0.4 -2.1 6 -9.3 11 -12.4 11.1 -7 45.5 -18.1 73.9 -23.8 18.6 -3.8 49.2 -7.8 59.6 -7.8 15.2 -0.1 25.7 3.5 32.6 11.1 2.9 3.2 3.7 4.9 3.7 7.9 0 5.2 -2.5 13.5 -6.3 20.7 -4.3 8 -16.3 20.5 -20 20.6 -1.5 0.1 -3.1 0.3 -3.7 0.4 -0.5 0.1 -3.7 0.3 -6.9 0.4 -5.3 0.1 -6.7 0.6 -13.3 5 -13.1 8.8 -35.2 32.1 -53.2 56.1 -12.3 16.4 -14.9 20.3 -18.2 27.7 -3.8 8.7 -5.4 16.7 -5.4 27.8 0 10.8 1.3 17.3 3.6 18.2 2.3 0.8 6.7 -1.5 14.1 -7.3 3.7 -3 9.7 -6.8 13.3 -8.4 16.8 -7.8 16.9 -8 25 -38 10.6 -39.1 12 -43.2 16 -50 2.4 -4 4.4 -9 5.2 -12.9 1.6 -8.1 3 -9.1 9.4 -6.6 3.6 1.4 7.5 4.4 14.5 11.4 11.3 11.4 15.9 18.5 19.4 30.6 2.2 7.7 2.5 10.7 2.4 21.8 -0.1 13.7 0.4 15.2 4.6 14.3 13 -3.1 49.2 -3.1 60.5 -0.1 19.6 5.3 25.5 11.7 25.3 27.5 -0.2 15.4 -6.2 30.5 -25.1 62.5 -16.2 27.3 -27.4 41.8 -39.7 51.2 -7.5 5.7 -24.1 14.3 -36.5 18.8 -7.1 2.6 -8.1 2.7 -20.5 2.2 -7.1 -0.3 -18.2 -1.5 -24.5 -2.7 -22.6 -4.1 -37 -2.3 -65.8 8.1 -22.9 8.3 -36.5 11.4 -60.2 13.9 -8.9 0.9 -30.2 1.3 -32.5 0.5z m16.6 -24.1 c19.1 -3.5 42.4 -11.8 67.6 -24 11.3 -5.5 16.5 -8.6 20.3 -12.2 2.7 -2.7 5 -5.4 5 -6 0 -1.3 -2.3 -3.8 -5.6 -6.3 -1 -0.8 -3.6 -3.5 -5.7 -6.1 -3.8 -4.8 -8 -6.9 -9.8 -5.1 -0.6 0.6 -1.7 3.6 -2.5 6.8 -0.9 3.2 -2.7 7.4 -4.1 9.2 -3 3.9 -10 8.3 -13.1 8.3 -2.5 0 -13.7 -9.7 -16.5 -14.2 -1 -1.7 -2.7 -5.4 -3.8 -8.2 -1.9 -5.2 -5.4 -9.3 -9.6 -11.5 -3.6 -1.9 -11.4 -1.3 -16.8 1.3 -8.9 4.2 -14 9.7 -19.4 21 -5 10.3 -6.9 12.8 -10.8 14 -5.1 1.6 -18.3 20 -18.3 25.4 0 2.9 3.7 5.2 8.5 5.3 2.2 0 6 0.9 8.5 1.9 5.6 2.4 15 2.5 26.1 0.4z m207.4 -58.2 c4.5 -2.8 29.5 -28 36.5 -36.8 7.1 -8.9 9.9 -14 11.5 -20.9 3.3 -14.4 -5.6 -22.2 -26.5 -23.2 -7.7 -0.4 -11.3 -0.1 -18 1.6 -9.2 2.3 -26.7 10.3 -34 15.5 -2.5 1.8 -7.3 4.7 -10.8 6.6 -5 2.6 -7.8 5.1 -12.8 11.4 -7.2 9 -12.4 18.5 -12.4 22.6 0 3.9 4 9.3 8 10.7 4.3 1.5 10.5 0.8 16.7 -1.9 5.8 -2.6 12.7 -2.7 17.3 -0.3 1.9 1 6.3 4.6 9.6 8 9 9.1 10.1 9.6 14.9 6.7z m-110.8 -11.2 c1.8 -3.6 4 -9.8 4.9 -13.7 1.7 -7 1.7 -7.3 -0.1 -9.3 -2.5 -2.8 -4.6 -2.5 -8.2 1.3 -5.3 5.5 -7.6 11.2 -7.1 17.7 0.5 6.4 3 11.3 5.6 10.8 0.9 -0.2 3.1 -3.2 4.9 -6.8z"/>
  <path d="M2173.7 433 c-1.9 -2.2 -4.3 -4 -5.1 -4 -0.9 0 -3.3 1.6 -5.5 3.5 l-3.9 3.5 -4.1 -6.4 c-2.3 -3.5 -4.9 -6.7 -5.7 -7 -2.4 -0.9 -4.9 0.9 -8.8 6.4 -3.5 4.9 -5.6 6.3 -5.6 3.7 0 -3.1 6.9 -11.7 21.2 -26.5 8.4 -8.7 19.2 -20.9 23.9 -27.2 4.8 -6.3 13.2 -16.9 18.7 -23.4 15.8 -18.9 20.1 -27.7 15.4 -31.9 -2.9 -2.7 -9.6 -2.2 -15.6 1.2 -6.2 3.5 -10.7 4.4 -14.4 3 -1.5 -0.6 -5.7 -1.5 -9.4 -2 -7.7 -1 -12.3 -3.1 -19.2 -8.8 -4.3 -3.7 -5.4 -4.1 -10 -4.1 l-5.3 0 -2.9 -5.2 c-2.8 -5.1 -2.9 -5.7 -2.9 -19 0 -13.6 0 -13.7 3 -17.9 1.7 -2.4 5 -5.8 7.3 -7.6 7.4 -5.6 11.6 -6.3 39.6 -6.3 27.8 -0.1 37.4 -1.2 46.1 -5.5 10.6 -5.1 12.1 -11.3 12.9 -53.2 1.2 -55.9 1.7 -69 3.2 -77.8 2.8 -16.8 5.9 -24.7 13.9 -36.1 7 -9.8 13.9 -13.4 27.1 -14.2 13.5 -0.7 16.2 1.3 20.9 15.8 2.6 7.8 6.4 13.6 13.4 20.1 6.6 6.3 10.1 12.2 10.1 17.1 0 1.8 -0.9 8.7 -1.9 15.3 -3.1 19.1 -4.4 36.4 -4.5 59.5 -0.1 22 0.6 27.1 4 28.4 0.9 0.3 7.1 -4.5 16.2 -12.5 17.9 -15.8 29.9 -24.1 38.8 -26.9 8.3 -2.5 14 -2.5 23.9 0 4.3 1.1 10.9 2 14.6 2 12.1 0 22.5 6.5 23.6 14.8 1 7.6 -6.4 19.4 -16.5 26.4 -7 4.8 -14 6.8 -28.4 7.9 -8.9 0.6 -15.3 1.7 -20.2 3.3 -9.9 3.4 -38.9 16.5 -50.1 22.7 -11.6 6.4 -11.9 6.9 -14.5 29.8 -4.8 42.5 -11.5 63.5 -26.4 83 -6.1 8.1 -23.1 22.7 -30.3 26.2 -4.3 2.1 -9.6 6.1 -17.3 13.4 -6.1 5.8 -11.5 10.5 -11.9 10.5 -0.5 0 -2.2 -1.6 -3.8 -3.6 l-2.8 -3.5 -4.8 4.6 c-3.8 3.8 -5.2 4.6 -7.1 4.1 -1.8 -0.4 -3.6 0.3 -7.1 3 -2.6 1.9 -5.8 4 -7.2 4.7 -2.3 1 -2.8 0.8 -5.2 -2.2 -3 -3.7 -4.6 -3.5 -8.5 0.8 -3 3.3 -6.7 2.7 -10.9 -1.9z"/>
  <path d="M2404.5 434.6 c-1.6 -1.3 -4.5 -2.7 -6.4 -3.1 -4.1 -0.9 -10.7 -6.8 -20.1 -18 -10.4 -12.4 -15.5 -17.4 -19.2 -18.9 -1.8 -0.8 -7.4 -1.9 -12.5 -2.6 -6.7 -0.9 -10.6 -2.1 -14.3 -4.2 -11.7 -6.7 -16.4 -21.4 -9.5 -29.7 3.9 -4.5 9.9 -5.5 30 -4.8 27.9 1 46 4.8 62 13 8.5 4.3 11.4 6.5 19.5 14.7 10.6 10.7 15.2 17.6 17.4 26.4 2.2 8.4 3.1 22.7 1.7 25.5 l-1.2 2.2 -3.5 -3.1 c-4.7 -4.1 -8.5 -4 -15.1 0.5 -2.9 1.9 -5.6 3.5 -6 3.5 -0.4 0 -2 -1.4 -3.4 -3.1 -3.1 -3.8 -5.5 -3.6 -11.4 1.1 -2.1 1.6 -4.1 3 -4.4 3 -0.3 0 -1.9 -1.1 -3.6 -2.4z"/>
  <path d="M2623.6 304.4 c-1.7 -2 -6.3 -6.9 -10.2 -10.8 -3.9 -3.9 -8.2 -9.1 -9.4 -11.6 -2.5 -4.8 -9.4 -25.5 -11.1 -33 -0.6 -2.4 -1.8 -5.3 -2.7 -6.3 -1.2 -1.3 -1.7 -3.7 -1.7 -7.6 0 -5.2 0.4 -6.3 4.2 -11.3 8 -10.6 26.3 -29.6 35 -36.4 4.8 -3.7 11.7 -9.2 15.2 -12.2 3.5 -2.9 10.5 -8.1 15.5 -11.4 5 -3.3 10 -6.8 11.1 -7.8 2.8 -2.4 10.9 -5.1 17.7 -5.9 4.5 -0.5 7.1 -1.6 12.9 -5.6 10.1 -7 16.9 -13.3 16.9 -15.7 0 -1.8 -0.4 -2 -4.1 -1.4 -5.4 0.9 -8.5 2.6 -15 8.2 -5.7 4.8 -9.5 7.1 -10.5 6.1 -1.1 -1.1 2 -5.3 9.7 -13.2 7.7 -8 9.9 -11.5 9.9 -16 0 -1.8 2.6 -4.4 11.5 -11.4 13 -10.4 14.2 -12.3 10.1 -17.2 -2.5 -2.9 -2.6 -3.6 -2.6 -14.3 0 -9.4 -0.4 -12.2 -2.1 -16.1 -2.3 -5.1 -2.2 -10.7 0.2 -18.9 1.1 -4 9.5 -13.6 11.8 -13.6 2 0 8.9 3.9 12.4 6.9 2.4 2.1 4.9 3.2 8.5 3.7 5.8 0.7 6 0.9 8.2 7.4 1.9 5.7 4.7 7.2 12.1 6.7 7.3 -0.6 12.3 -3.4 52.9 -29.7 9.1 -5.9 18.4 -11.7 20.7 -12.9 5.3 -2.6 10.2 -2.7 17.6 -0.1 3.1 1.1 6.5 2 7.6 2 3.6 0 6.9 2.2 10.2 6.8 2.7 3.8 3.4 5.8 3.7 10.8 0.4 5.7 0.1 6.9 -4.6 16.5 -2.8 5.7 -6.6 15.2 -8.5 21.1 -4.7 14.1 -8.4 20.8 -17.7 32 -7.7 9.3 -14.1 15.3 -27.8 26.2 -4 3.2 -7.1 6.3 -6.9 6.9 0.2 0.6 2.4 1.6 5 2.3 7.8 2 12.7 5.7 25.1 19.1 14.2 15.2 16.9 19.2 19.1 28.3 0.9 3.7 3.4 9.7 5.4 13.3 5 8.4 6 11.6 7.2 21.6 1.7 14.8 -1.9 26.3 -11.3 36.7 -5.7 6.2 -11.1 9.4 -16.5 9.7 -4.9 0.3 -5.3 -1.8 -0.6 -4.1 4.4 -2.3 15.4 -14.5 18.5 -20.6 2 -4.1 2 -4 -4.6 2.5 -3.6 3.6 -9 7.9 -11.9 9.4 -7.1 3.9 -8.6 5.1 -15 12.7 -5 5.9 -6 6.6 -10.2 7.1 -6.7 1 -8.2 2.1 -9 6.8 -0.9 5.3 -2.9 10.2 -4.9 11.8 -0.8 0.7 -2.8 1.3 -4.5 1.3 -2.5 0.1 -4.5 -1.2 -10.4 -6.7 -3.9 -3.8 -8.3 -7.8 -9.5 -9 -3.6 -3.4 -0.3 -3.9 5.4 -0.9 4.7 2.5 8.4 2.5 8.4 -0.1 0 -1.3 -4 -5 -6.3 -5.8 -0.8 -0.2 -1.2 -2.8 -1.2 -7.2 l0 -6.9 -5.8 -1.2 c-7.1 -1.4 -13.9 -4.4 -13.4 -5.8 0.2 -0.6 3.1 -1.3 6.4 -1.6 6.5 -0.5 9.3 -2.1 9.3 -5.2 0 -3.8 -4.2 -6.2 -16.7 -9.7 -6.8 -1.8 -12.3 -3.6 -12.3 -4 0 -0.3 7.5 -0.5 16.7 -0.3 17.6 0.2 32.5 -1.1 38.1 -3.4 1.8 -0.7 5.9 -3.4 9.1 -5.9 5.3 -4 6.1 -5 7 -9.5 2.4 -11 0.3 -16.2 -7.9 -20.7 -6 -3.2 -13.7 -2.8 -24 1.4 -6.6 2.7 -9.1 3.1 -21.7 3.7 -8.9 0.5 -14.3 0.4 -14.3 -0.2 0 -1.9 3.5 -5 6.9 -6.1 1.9 -0.6 6.9 -1.1 11.1 -1.1 4.3 0 9.2 -0.3 10.9 -0.6 3.9 -0.8 5.6 -3.6 4 -6.6 -1.1 -2.1 -1.4 -2.1 -19.8 -1.5 -23.2 0.7 -18.8 -0.8 -67.6 22.8 -3.8 1.9 -12.1 6.7 -18.3 10.8 -11.5 7.5 -16.2 12.7 -16.2 17.9 0 3.3 2.5 2.7 8.8 -2.1 15.2 -11.5 19.5 -14.1 23.6 -14.1 6 -0.1 6 2.5 -0.1 6 -9.2 5.4 -21.8 13.7 -27.8 18.4 -3.3 2.5 -9.4 7 -13.5 9.8 -4.1 2.9 -13.3 10.7 -20.3 17.5 -10.7 10.1 -12.8 12.7 -12.5 14.7 0.6 4.6 4.3 3.8 9.8 -2.1 l4.8 -5.2 1.7 5.5 c2.5 7.7 1.6 9.8 -5.6 15 -11.2 7.9 -13 9.9 -14 15.3 -1.7 9.6 -9.5 12.6 -15.3 5.9z m209.1 -44.4 c4.1 -1.5 5.1 -4.5 2.5 -7.3 -1.2 -1.3 -2.2 -3.9 -2.4 -6.2 -0.3 -3.5 -0.6 -4 -2.7 -4 -1.7 0 -3 1 -4.1 3 -1.1 2 -2.9 3.3 -5.4 4 -2.1 0.6 -4.5 2 -5.2 3 -2.2 2.9 -1.7 7 0.9 8.3 2.5 1.3 11.5 0.9 16.4 -0.8z m-182.6 -9.8 c2.4 -2.1 7.4 -6.1 11 -9 8.3 -6.5 9.6 -7.9 8.1 -9.4 -1.9 -1.9 -5.8 0.1 -13.9 6.9 -4.3 3.8 -9.4 8 -11.3 9.4 -3 2.3 -3.3 2.8 -2.1 4.3 2 2.4 3.3 2 8.2 -2.2z m203.6 -21.4 c3.3 -2.7 0.2 -9.8 -4.3 -9.8 -4.5 0 -8.9 7.5 -6.2 10.7 1.3 1.7 8.1 1.1 10.5 -0.9z m-173.7 -24.5 c3.1 0.9 4.4 0.7 7.9 -1.1 9.4 -5 33.3 -24.4 26.9 -21.9 -0.9 0.3 -5.8 3.4 -11 6.8 -10 6.7 -17.4 9.7 -19.2 7.8 -0.8 -0.7 -0.3 -1.6 1.7 -3.1 3.9 -2.8 3.6 -5.2 -0.5 -4.4 -5.7 1.1 -23.8 13.3 -23.8 16 0 3.1 2.2 3.4 8.2 1.2 5 -1.9 6.6 -2.1 9.8 -1.3z m193.6 -0.4 c1.2 -1.4 1.9 -3.6 1.9 -6.4 0 -5.4 -2.5 -8.5 -7 -8.5 -4 0 -5.1 1.3 -6 7 -0.5 3.8 -0.3 5 1.5 7.3 2.6 3.3 6.9 3.6 9.6 0.6z m-213.4 -11.4 c6.6 -8 6.9 -13.6 0.4 -9.6 -6.5 4.1 -9.4 9.9 -6.4 12.9 1.4 1.4 2.8 0.6 6 -3.3z m29.9 -15.6 c4.6 -2.3 11.9 -5.4 16.1 -6.9 16.6 -6.2 27.8 -13.3 27.8 -17.6 0 -3.4 -2.3 -3.1 -7.6 1 -3.9 3 -5.5 3.5 -12.2 4.1 -6.3 0.6 -8.4 1.3 -11.7 3.6 -9 6.6 -14.4 9.8 -18.1 10.8 -7.4 2 -10.5 5.8 -6.6 8 2.6 1.6 3.1 1.4 12.3 -3z m-5.3 -10.1 c0.9 -1.2 2.8 -3.2 4.1 -4.4 3.6 -3.6 2.2 -5.8 -3.4 -5.2 -6.4 0.8 -9.5 3.1 -9.5 7.2 0 1.8 0.3 3.6 0.7 3.9 1.5 1.5 6.4 0.6 8.1 -1.5z m42.6 -18.9 c3.3 -2.6 3.3 -4.7 0.1 -5.5 -3.2 -0.8 -9.5 3 -9.5 5.7 0 2.7 5.9 2.6 9.4 -0.2z m37.1 -0.4 c3.3 -1.4 11.2 -3.6 17.6 -5 6.4 -1.3 12.9 -2.9 14.5 -3.5 4.3 -1.7 16.9 -0.4 31.2 3.2 6.8 1.6 12.6 2.8 12.9 2.4 2.4 -2.3 -6.5 -8.2 -15.3 -10.1 -9.2 -1.9 -18 -1.8 -35.4 0.4 -25.5 3.3 -38.5 8.1 -36.4 13.5 0.9 2.2 3.9 2 10.9 -0.9z m55 -104.9 c2.4 -1.7 1.3 -4.6 -1.8 -4.6 -2.8 0 -4.7 1.7 -4.7 4.2 0 2.2 3.7 2.4 6.5 0.4z m12.6 -8.4 c3.4 -3.1 4.2 -4.6 4.6 -8.5 0.5 -3.8 0.2 -4.8 -1.2 -5.3 -2.9 -1.2 -6.7 0.9 -10.2 5.4 -4.3 5.7 -5.2 9.1 -2.8 10.9 3 2.1 5.3 1.5 9.6 -2.5z"/>
  <path d="M1170 221.2 c0 -4.9 30.8 -58.8 42 -73.7 4.6 -6.1 6.1 -9.1 8.9 -17.5 1.3 -4.2 4.2 -9.2 7.9 -14.1 3.1 -4.1 8.2 -10.9 11.3 -15 6.8 -8.9 25.1 -46.4 27.1 -55.4 1.7 -7.7 4.4 -9.6 11.3 -7.7 2.5 0.6 7.6 1.2 11.3 1.2 3.9 0 7.5 0.5 8.4 1.3 0.9 0.6 2.6 4 3.8 7.5 2 5.5 2.2 7.5 1.7 16 -0.3 5.3 -1.1 11.4 -1.7 13.6 -1.5 5 -6.8 10.7 -21 22.4 -6.3 5.3 -15.8 13.9 -21.1 19.1 -14 14.1 -40.8 45.8 -50.7 60.1 -4.8 6.8 -10.7 14.3 -13.1 16.5 -9.6 8.9 -17.1 16.9 -20.7 22 -3.9 5.7 -5.4 6.7 -5.4 3.7z"/>
  <path d="M2737.7 198.3 c-0.4 -0.3 -0.7 -1.6 -0.7 -2.9 0 -4 9 -8 12.7 -5.6 1.9 1.2 -0.3 3.7 -6 6.7 -5.4 2.8 -5.1 2.7 -6 1.8z"/>
  <path d="M2758 188.1 c0 -1.6 4.1 -6.1 5.6 -6.1 2.7 0 2.9 3.1 0.3 5.1 -2.5 1.9 -5.9 2.5 -5.9 1z"/>
  <path d="M2680.6 133.9 c-1 -0.6 -3.6 -0.9 -5.7 -0.6 -2.7 0.3 -4.4 0.1 -5.3 -0.9 -1.1 -1 -4.1 -1.4 -10.6 -1.4 -5 0 -9.9 -0.4 -10.9 -1 -2.7 -1.4 -13.5 -18.6 -18.7 -29.4 -2.4 -5 -5.5 -13.4 -7 -18.6 -2.4 -8.4 -2.7 -11.7 -3.1 -29.4 -0.6 -23.7 0 -26.9 5.3 -28.6 6.3 -2.1 9.9 -0.8 17.8 6.6 3.9 3.7 8.5 8 10.2 9.6 2.9 2.6 6 9.3 15.2 32.6 2.6 6.7 5.4 9.2 10.2 9.2 6.3 0 11.7 -3.4 21.7 -13.9 6.8 -7.1 9.5 -9.3 10.3 -8.5 1.3 1.3 -0.4 5.3 -6.4 15.1 -3.3 5.3 -3.8 7.2 -4.6 15 -0.8 9 -1.4 10.6 -7.9 22.7 -2.6 4.9 -3.1 6.9 -3.1 12.6 0 6 -0.3 7.1 -2.2 8.4 -2.6 1.9 -2.7 1.9 -5.2 0.5z"/>
 </g>
</svg>